<?xml version="1.0" encoding="utf-8"?>
<!-- Generator: Adobe Illustrator 23.0.3, SVG Export Plug-In . SVG Version: 6.00 Build 0)  -->
<svg version="1.1" xmlns="http://www.w3.org/2000/svg" xmlns:xlink="http://www.w3.org/1999/xlink" x="0px" y="0px"
	 viewBox="0 0 2101 2482.6" style="enable-background:new 0 0 2101 2482.6;" xml:space="preserve">
<style type="text/css">
	.st0{display:none;}
	.st1{display:inline;fill:none;stroke:#B50000;stroke-width:30;stroke-miterlimit:10;}
	.st2{fill:none;stroke:#FFFFFF;stroke-width:28;stroke-miterlimit:10;}
</style>
<g id="Calque_1" class="st0">
	<title>logoSuccessData</title>
	<path class="st1" d="M728,1775.9c106.9-73,217.6-198.6,299.8-323.3l1.2-1.9l2.7-4.1l2.3-3.6l1.4-2.2c1-1.4,1.9-2.9,2.8-4.4l0.1-0.2
		c8-12.5,15.7-25,23.1-37.4c0.2-0.3,0.3-0.6,0.5-0.9l2.5-4.3l1.3-2.3l2-3.5c1.1-1.9,2.3-3.9,3.4-5.9
		c70.3-121.8,159.4-348.4,113.2-479.7c-27.8-79.5-93.9-84.3-141.5-75.9c75.6-23.6,155.6-29.5,233.8-17.2
		c-83.9-13.3-188.8-8.2-300,42.1"/>
	<path class="st1" d="M976.9,851.4l-1.4,0.6v0.5c-80.1,36.4-163.2,96-244.1,189.3c-0.4,0.5-0.8,1-1.2,1.4l-2.8,3.2l-2.1,2.4
		c-0.8,0.9-1.5,1.8-2.3,2.7l-2.5,3l-2,2.4l-2.9,3.4l-1.8,2.2c-1,1.2-2,2.5-3.1,3.8l-1.6,1.9c-1.1,1.3-2.1,2.7-3.2,4l-1.5,1.9
		c-1.1,1.4-2.3,2.8-3.4,4.3l-1.3,1.7l-3.6,4.6l-1.2,1.5c-1.3,1.6-2.6,3.3-3.8,5l-0.9,1.2c-1.6,2.1-3.2,4.1-4.7,6.3
		c-131.5,174.7-189.5,293-226.8,426.9c-57.5,207.7,6.6,273.6,27.4,291.4c-179.3-116.1-125-633.6-120-676.8
		c-5.2,45.7-66.5,628.5,157.3,694c58,17,127.4-6.4,198.8-53.9h-0.7c2.1-1.4,4.3-2.9,6.4-4.3"/>
	<path class="st1" d="M1922.4,1892.2c-38.3-41.7-84.9-79.1-137.5-109.5l0,0C1837.5,1813.2,1884.1,1850.5,1922.4,1892.2z"/>
	<path class="st1" d="M1780.6,1780.2c1.4,0.8,2.8,1.6,4.2,2.4l0,0C1783.4,1781.9,1782.1,1781.1,1780.6,1780.2L1780.6,1780.2z"/>
	<path class="st1" d="M819.3,2067.8c16.2-15.6,33-31.6,50.2-48c30.7-29.3,122.1-112.6,206.7-177.6c-84.7,65-176.2,148.3-206.9,177.6
		C852.1,2036.2,835.5,2052.2,819.3,2067.8z"/>
	<path class="st1" d="M728,1775.9c-2.1,1.5-4.3,2.9-6.4,4.3h0.7c2-1.3,4-2.6,6-4L728,1775.9z"/>
	<path class="st1" d="M728,1775.9l0.2,0.3c106.8-73,217.4-198.9,299.6-323.6C945.6,1577.3,834.9,1702.9,728,1775.9z"/>
	<path class="st1" d="M1986.9,1778.6c0.1,0.3,0.4,0.8,0.7,1.4C1987.4,1779.5,1987,1778.8,1986.9,1778.6z"/>
	<path class="st1" d="M1644.9,1722.8c47.3,13.8,92.9,33.1,135.8,57.5h0.1C1737.8,1755.8,1692.2,1736.6,1644.9,1722.8z"/>
	<path class="st1" d="M1061.5,1398.9c-7.4,12.4-15.1,24.9-23.1,37.4C1046.4,1423.8,1054.1,1411.3,1061.5,1398.9z"/>
	<path class="st1" d="M1158,1784.7c2.5-1.5,5-3,7.4-4.5"/>
	<path class="st1" d="M722.2,1780.2c-71.4,47.5-140.8,70.9-198.8,53.9c-223.9-65.5-162.5-648.3-157.3-694v-0.1
		c0-0.3,0.1-0.6,0.1-0.9v-0.1c0-0.2,0-0.4,0.1-0.6c0-0.2,0-0.2,0-0.3c0-0.1,0-0.2,0-0.2s0-0.2,0-0.3v-0.1c0-0.1,0-0.2,0-0.2h-0.4
		v0.5C299.4,1310,159.8,1673,132.5,1739.6c-80.5,192.8-106,338.3-92.7,437.1c19.3,112,79.7,213.5,164,246
		c98.5,38.1,193.8,5.8,302.2-72.2c1.3-1,3.2-2,4.7-3c9.7-7.1,19.4-14.4,29.1-22.1c-2.7,1.9-5.3,3.9-7.9,5.8
		c86.4-66.3,175.1-155.3,287.3-263.3c16.2-15.6,32.8-31.6,50-48c30.7-29.3,122.2-112.6,206.9-177.6c29-22.3,57.1-42.4,81.7-57.5"/>
	<path class="st1" d="M1784.8,1782.6c52.6,30.5,99.3,67.8,137.5,109.5c47.1,51.8,83.5,111.5,105.1,175.7c8,23.6,14.1,47.6,17,71.7
		c0.9,7.9,1.9,15.2,2.4,23.1c2.4,21.6,1.9,43.4-1.4,64.9c62.4-159.5-47-423.5-57.9-447.5c0,0.1,0.1,0.1,0.1,0.2"/>
	<path class="st1" d="M1987.6,1780c-0.3-0.6-0.5-1.1-0.7-1.4c-66.9-174.7-150.4-392.8-231-603.8c-14.1-19.9-239-327.4-479.1-365.6
		c-78.2-12.2-158.2-6.3-233.8,17.2c47.6-8.5,113.7-3.6,141.5,75.9c46.2,131.3-42.8,357.9-113.2,479.7c-1.1,1.9-2.3,3.9-3.4,5.9
		l-2,3.5l-1.3,2.3l-2.5,4.3c-0.2,0.3-0.4,0.6-0.5,0.9c-7.4,12.4-15.1,24.9-23.1,37.4l-0.1,0.2c-1,1.5-1.9,2.9-2.8,4.4l-1.4,2.2
		l-2.3,3.6l-2.7,4.1l-1.2,1.9c-82.2,124.8-192.7,250.7-299.6,323.6"/>
	<path class="st1" d="M1593.2,1710.1L1593.2,1710.1c2.5,0.5,5,1,7.3,1.5l0.9,0.2c3,0.6,6,1.3,9,2l0.4,0.1c1.5,0.3,3.1,0.7,4.6,1.1
		l1.8,0.4l3.7,0.9l5.7,1.4l0,0c1.9,0.5,4,1,6,1.6l0.8,0.2l5.3,1.4l6.1,1.8c47.4,13.8,93,33.1,135.9,57.5"/>
	<path class="st1" d="M975.5,852.4V852c-80,36.5-163.1,96.3-244.1,189.7C812.4,948.4,895.4,888.8,975.5,852.4z"/>
	<path class="st1" d="M975.5,852l1.4-0.6"/>
	<path class="st1" d="M1276.9,809.2c240.1,38.2,464.9,345.8,479.1,365.6c-12.3-32.4-292.8-772.2-292.8-772.2
		S1327.8,34.3,1050.6,42.2c-308.8,8.4-412.5,360.5-412.5,360.5s87-293,337.5-350.2"/>
	<path class="st1" d="M975.5,52.4c-250.4,57.2-337.4,350.3-337.4,350.3s-142.4,389.2-272,734.6h0.4c0,0,0,0.1,0,0.2v0.1
		c0,0.1,0,0.2,0,0.3s0,0.2,0,0.2c0,0.1,0,0.2,0,0.3c0,0.1,0,0.4-0.1,0.6v0.1c0,0.3-0.1,0.6-0.1,0.9v0.1
		c-4.9,43.1-59.3,560.7,120.1,676.8c-20.7-17.8-84.8-83.7-27.4-291.4c37.3-133.9,95.3-252.2,226.8-426.9c1.6-2.1,3.2-4.2,4.7-6.3
		l0.9-1.2c1.3-1.7,2.6-3.3,3.8-5l1.2-1.5l3.6-4.6l1.3-1.7c1.1-1.4,2.3-2.8,3.4-4.3l1.5-1.9c1.1-1.3,2.1-2.7,3.2-4l1.6-1.9
		c1-1.3,2-2.5,3.1-3.8l1.8-2.2l2.9-3.4l2-2.4l2.5-3c0.8-0.9,1.5-1.8,2.3-2.7l2.1-2.4l2.8-3.2c0.4-0.5,0.8-1,1.2-1.4
		c80.9-93.3,164.1-153.2,244.1-189.7"/>
	<path class="st1" d="M1784.8,1782.7c-1.4-0.8-2.8-1.6-4.2-2.4h-0.1c-108.6-61.8-242.3-94.6-381-78h-0.2c-2.3,0.3-4.5,0.6-6.8,0.9
		l-0.9,0.1l-6.2,0.9l-1.4,0.2c-1.9,0.3-3.9,0.6-5.8,0.9l-2,0.3c-1.7,0.3-3.5,0.6-5.3,0.9l-2.8,0.5l-4.5,0.8
		c-2.5,0.4-4.9,0.9-7.4,1.4l-1.8,0.3c-2.2,0.4-4.5,0.9-6.7,1.4l-2.4,0.5c-2.2,0.5-4.4,1-6.5,1.4l-1.7,0.4c-3.9,0.9-7.8,1.8-11.6,2.8
		c-1.3,0.3-2.6,0.7-4,1c-1.6,0.4-3.2,0.8-4.9,1.3c-1.6,0.4-3.2,0.8-4.8,1.3c-1.6,0.4-2.9,0.8-4.4,1.2l-5.6,1.6l-3.7,1.1
		c-3.1,1-6.2,1.9-9.3,2.9l-0.3,0.1c-5.5,1.7-11,3.6-16.5,5.5l-1.4,0.5c-2.7,1-5.3,1.9-8,2.9h-0.1c-6.1,2.2-12.2,4.6-18.3,7l-0.7,0.3
		c-2.6,1-5.2,2.1-7.8,3.2l-1.7,0.7c-2.8,1.2-5.7,2.4-8.5,3.7l-0.9,0.4c-2.6,1.2-5.3,2.4-7.9,3.6l-1.7,0.8c-2.9,1.4-5.9,2.7-8.8,4.1
		l-1,0.5c-2.7,1.3-5.4,2.6-8.2,4l-1.8,0.9c-3,1.5-6.1,3.1-9.1,4.7l-1.4,0.7c-3.1,1.6-6.2,3.3-9.2,4.9c-3.1,1.7-6.5,3.8-9.6,5.7h-0.3
		c-2.5,1.4-5,2.9-7.5,4.5"/>
	<path class="st1" d="M1158,1784.7c-24.7,15.1-52.8,35.2-81.8,57.4c-84.5,65-175.9,148.3-206.7,177.6c-17.3,16.4-34,32.4-50.2,48
		c-108.7,104.9-195.7,191.8-279.4,257.5c161.5-116.9,409.8-232.9,644.1-177.3c251.8,59.6,384.2,292.5,573.3,292.5
		c128.2,0,247-92.1,288.1-213c3.3-21.5,3.8-43.3,1.4-64.9c-0.5-7.9-1.4-15.1-2.4-23.1c-2.9-24.1-9.1-48.1-17-71.7
		c-21.7-64.3-58-123.9-105.1-175.7c-38.3-41.7-84.9-79-137.6-109.5"/>
	<path class="st1" d="M1165.9,1780.2c3.2-1.9,6.6-4,9.6-5.7c-3.3,1.8-6.6,3.7-10,5.7H1165.9z"/>
	<path class="st1" d="M1638.7,1721l-5.3-1.4l-0.8-0.2c-1.9-0.5-4-1.1-6-1.6l0,0l-5.7-1.4l-3.7-0.9l-1.8-0.4
		c-1.5-0.4-3.1-0.7-4.6-1.1l-0.4-0.1c-3-0.7-6-1.4-9-2l-0.9-0.2c-2.4-0.5-4.9-1-7.2-1.5h-0.1c-63.7-12.9-129.1-15.5-193.7-7.8
		c138.7-16.6,272.4,16.2,381,78h0.1c-42.9-24.4-88.4-43.7-135.8-57.5L1638.7,1721z"/>
	<path class="st1" d="M1288.5,1726.2c-5.5,1.7-11,3.6-16.5,5.5C1277.5,1729.8,1283,1728,1288.5,1726.2z"/>
	<path class="st1" d="M1262.5,1735.1c-6.1,2.2-12.2,4.6-18.3,7C1250.3,1739.7,1256.4,1737.3,1262.5,1735.1z"/>
	<path class="st1" d="M532,2331.1c2.6-1.9,5.2-3.9,7.9-5.8c83.8-65.8,170.7-152.6,279.4-257.5C707.1,2175.8,618.4,2264.8,532,2331.1
		z"/>
	<path class="st1" d="M1076.2,1842.2c29-22.3,57.1-42.3,81.8-57.4l0,0C1133.3,1799.8,1105.2,1819.9,1076.2,1842.2z"/>
	<path class="st1" d="M1593.2,1710.1c-131.2-26.5-277.4-12.2-417.6,64.4c-3.3,1.8-6.7,3.7-10.1,5.7h0.1c3.4-1.9,6.8-3.9,10-5.7
		c3.1-1.7,6.2-3.3,9.2-4.9l1.4-0.7c3-1.6,6.1-3.1,9.1-4.7l1.8-0.9c2.7-1.4,5.4-2.7,8.2-4l1-0.5c2.9-1.4,5.9-2.8,8.8-4.1l1.7-0.8
		c2.6-1.2,5.3-2.4,7.9-3.6l0.9-0.4c2.8-1.3,5.7-2.5,8.5-3.7l1.7-0.7c2.6-1.1,5.2-2.2,7.8-3.2l0.7-0.3c6.1-2.4,12.2-4.8,18.3-7h0.1
		c2.7-1,5.3-1.9,8-2.9l1.4-0.5c5.5-1.9,11-3.8,16.5-5.5l0.3-0.1c3.1-1,6.2-1.9,9.3-2.9l3.7-1.1l5.6-1.6c1.5-0.4,2.9-0.8,4.4-1.2
		c1.5-0.4,3.2-0.9,4.8-1.3c1.6-0.4,3.2-0.9,4.9-1.3c1.3-0.3,2.6-0.7,4-1c3.9-1,7.8-1.9,11.6-2.8l1.7-0.4c2.2-0.5,4.4-1,6.5-1.4
		l2.4-0.5c2.2-0.5,4.5-0.9,6.7-1.4l1.8-0.3c2.5-0.5,4.9-0.9,7.4-1.4l4.5-0.8l2.8-0.5c1.8-0.3,3.5-0.6,5.3-0.9l2-0.3
		c1.9-0.3,3.9-0.6,5.8-0.9l1.4-0.2l6.2-0.9l0.9-0.1c2.3-0.3,4.5-0.6,6.8-0.9h0.2C1464,1694.6,1529.4,1697.2,1593.2,1710.1z"/>
</g>
<g id="Layer_2">
	<path id="XMLID_6_" class="st2" d="M1757,1178c80.5,210.9,164,428.8,230.8,603.4c5.7,11.5,118.4,335,58.5,448.7"/>
	<path id="XMLID_3_" class="st2" d="M363.3,1138c-0.4,3.1-70.4,630.9,162,698.8c162.6,47.6,415.6-222.2,547.5-451.8
		c70.3-121.8,159.3-348.3,113.1-479.4c-27.8-79.4-93.9-84.5-141.5-76"/>
	<path id="XMLID_5_" class="st2" d="M533.8,2333.6c-108.4,77.9-229.5,129.6-328,91.5c-84.3-32.5-144.7-133.9-164-245.8
		c-13.2-98.8,12.2-244.2,92.8-437l505.2-1336c0,0,103.7-351.9,412.3-360.3c277.1-7.9,412.3,360.3,412.3,360.3
		s280.3,739.4,292.6,771.8c-14.1-19.9-238.9-327.2-478.8-365.4c-156-24.7-384.4,14.1-590.9,289.1
		c-131.4,174.6-189.4,292.8-226.6,426.7c-57.4,207.6,6.6,273.5,27.3,291.2"/>
	<path id="XMLID_1_" class="st2" d="M2046.3,2230c-22,83.1-146,212.9-287.9,212.9c-189,0-321.3-232.7-573-292.3
		c-238-56.5-490.5,64.2-651.6,183c98.9-75.9,200.7-181.4,337.4-311.2c43.8-41.7,211.1-193.4,305.8-245.2
		c281.3-153.7,568-69.9,761.9,129.7C2038.5,2009.6,2068.8,2145.4,2046.3,2230z"/>
</g>
</svg>
