<?xml version="1.0" encoding="utf-8"?>
<!-- Generator: Adobe Illustrator 23.0.3, SVG Export Plug-In . SVG Version: 6.00 Build 0)  -->
<svg version="1.1" id="Calque_1" xmlns="http://www.w3.org/2000/svg" xmlns:xlink="http://www.w3.org/1999/xlink" x="0px" y="0px"
	 width="2101px" height="2482.6px" viewBox="0 0 2101 2482.6" style="enable-background:new 0 0 2101 2482.6;" xml:space="preserve"
	>
<style type="text/css">
	.st0{fill:#BC3B9F;}
</style>
<title>logoSuccessData</title>
<path class="st0" d="M1837.5,367.6h-1564c-63.8,0-115.6,51.9-115.6,115.6v1271.3c0,63.8,51.9,115.6,115.6,115.6h98.9
	c14.5,0,26.3-11.8,26.3-26.3c0-14.5-11.8-26.3-26.3-26.3h-98.9c-34.8,0-63.1-28.3-63.1-63.1v-99.7h957.2v45.3h-20.8
	c-28.5,0-51.7,23.2-51.7,51.7v65.8h-563c-14.5,0-26.3,11.8-26.3,26.3c0,14.5,11.8,26.3,26.3,26.3h252.6v94.2h-79.3
	c-52.9,0-96,43.1-96,96v56.8c0,24.1,19.6,43.8,43.8,43.8h802.5c24.1,0,43.8-19.6,43.8-43.8v-56.8c0-52.9-43-96-96-96h-79.3v-33.2
	H1810c28.5,0,51.7-23.2,51.7-51.7v-12.4c51.2-11.9,89.5-57.8,89.5-112.6l2-1271.3C1953.1,419.4,1901.3,367.6,1837.5,367.6z
	 M1147.7,1592.3v-125.9h661.4v125.9H1147.7z M1220.2,1413.8v-55.3h516.4v55.3H1220.2z M1736.6,1644.8v55.3h-516.4v-55.3H1736.6z
	 M837.3,1870.1h257.8v9.4c0,28.5,23.2,51.7,51.7,51.7h124.9v33.2H837.3V1870.1z M1403.6,2016.9c23.9,0,43.4,19.5,43.4,43.4v48H662
	v-48c0-23.9,19.5-43.4,43.4-43.4H1403.6z M1809.1,1878.6h-661.4v-125.9h661.4V1878.6z M1898.6,1754.5c0,25.4-15.2,47.4-36.9,57.3
	v-60.1c0-28.5-23.2-51.7-51.7-51.7h-20.8v-45.3h109.4V1754.5z M1898.6,1602.3h-37.8c0.5-3,0.9-136.8,0.9-136.8
	c0-28.5-23.2-51.7-51.7-51.7h-20.8v-55.3h20.8c28.5,0,51.7-23.2,51.7-51.7v-127.7c0-28.5-23.2-51.7-51.7-51.7h-148.4
	c-14.5,0-26.3,11.8-26.3,26.3c0,14.5,11.8,26.3,26.3,26.3h147.5v125.9h-661.4V1180h350.4c14.5,0,26.3-11.8,26.3-26.3
	c0-14.5-11.8-26.3-26.3-26.3h-351.3c-28.5,0-51.7,23.2-51.7,51.7v127.7c0,28.5,23.2,51.7,51.7,51.7h20.8v55.3h-20.8
	c-28.5,0-51.7,23.2-51.7,51.7c0,0,0.3,133.9,0.9,136.8H210.4V725h1688.1V1602.3z M1898.6,672.4H212.4V483.2
	c0-34.8,28.3-63.1,63.1-63.1h1560c34.8,0,63.1,28.3,63.1,63.1V672.4z"/>
<g id="Layer_2">
	<path class="st0" d="M364.6,1021.7c5.1,5.1,11.8,7.7,18.6,7.7c6.7,0,13.5-2.6,18.6-7.7c10.3-10.3,10.3-26.9,0-37.2L338,920.7
		l63.8-63.8c10.3-10.3,10.3-26.9,0-37.2s-26.9-10.3-37.2,0l-82.4,82.4c-4.9,4.9-7.7,11.6-7.7,18.6c0,7,2.8,13.7,7.7,18.6
		L364.6,1021.7z"/>
	<path class="st0" d="M625.4,920.7l-63.8,63.8c-10.3,10.3-10.3,26.9,0,37.2c5.1,5.1,11.8,7.7,18.6,7.7c6.7,0,13.5-2.6,18.6-7.7
		l82.4-82.4c10.3-10.3,10.3-26.9,0-37.1l-82.4-82.4c-10.3-10.3-26.9-10.3-37.1,0c-10.3,10.3-10.3,26.9,0,37.2L625.4,920.7z"/>
	<path class="st0" d="M442.5,1027.5c3.2,1.2,6.4,1.8,9.6,1.8c10.5,0,20.4-6.3,24.5-16.7l64.7-164.8c5.3-13.5-1.3-28.7-14.8-34.1
		c-13.5-5.3-28.7,1.3-34,14.8l-64.7,164.8C422.4,1007,429,1022.2,442.5,1027.5z"/>
	<path class="st0" d="M315.7,1183.5h177c14.5,0,26.3-11.8,26.3-26.3c0-14.5-11.8-26.3-26.3-26.3h-177c-14.5,0-26.3,11.8-26.3,26.3
		C289.4,1171.7,301.2,1183.5,315.7,1183.5z"/>
	<path class="st0" d="M900.4,1131H589.2c-14.5,0-26.3,11.8-26.3,26.3c0,14.5,11.8,26.3,26.3,26.3h311.2c14.5,0,26.3-11.8,26.3-26.3
		C926.6,1142.7,914.9,1131,900.4,1131z"/>
	<path class="st0" d="M315.7,1294.3h75.4c14.5,0,26.3-11.8,26.3-26.3c0-14.5-11.8-26.3-26.3-26.3h-75.4c-14.5,0-26.3,11.8-26.3,26.3
		C289.4,1282.6,301.2,1294.3,315.7,1294.3z"/>
	<path class="st0" d="M804.2,1241.8c-14.5,0-26.3,11.8-26.3,26.3c0,14.5,11.8,26.3,26.3,26.3h45.9c14.5,0,26.3-11.8,26.3-26.3
		c0-14.5-11.8-26.3-26.3-26.3H804.2z"/>
	<path class="st0" d="M735.1,1268c0-14.5-11.8-26.3-26.3-26.3H483.3c-14.5,0-26.3,11.8-26.3,26.3c0,14.5,11.8,26.3,26.3,26.3h225.5
		C723.3,1294.3,735.1,1282.6,735.1,1268z"/>
	<path class="st0" d="M907.2,1268c0,14.5,11.8,26.3,26.3,26.3h86c14.5,0,26.3-11.8,26.3-26.3c0-14.5-11.8-26.3-26.3-26.3h-86
		C919,1241.8,907.2,1253.5,907.2,1268z"/>
	<path class="st0" d="M764.1,941.8h90.7c14.5,0,26.3-11.8,26.3-26.3c0-14.5-11.8-26.3-26.3-26.3h-90.7c-14.5,0-26.3,11.8-26.3,26.3
		C737.8,930,749.6,941.8,764.1,941.8z"/>
	<path class="st0" d="M956.4,941.8h553.5c14.5,0,26.3-11.8,26.3-26.3c0-14.5-11.8-26.3-26.3-26.3H956.4c-14.5,0-26.3,11.8-26.3,26.3
		C930.1,930,941.9,941.8,956.4,941.8z"/>
	<path class="st0" d="M1425.8,1004.8h-224.2c-14.5,0-26.3,11.8-26.3,26.3c0,14.5,11.8,26.3,26.3,26.3h224.2
		c14.5,0,26.3-11.8,26.3-26.3C1452.1,1016.6,1440.4,1004.8,1425.8,1004.8z"/>
	<path class="st0" d="M1117.6,1004.8h-77.1c-14.5,0-26.3,11.8-26.3,26.3c0,14.5,11.8,26.3,26.3,26.3h77.1
		c14.5,0,26.3-11.8,26.3-26.3C1143.8,1016.6,1132.1,1004.8,1117.6,1004.8z"/>
	<path class="st0" d="M764.1,1057.4h188.8c14.5,0,26.3-11.8,26.3-26.3c0-14.5-11.8-26.3-26.3-26.3H764.1
		c-14.5,0-26.3,11.8-26.3,26.3C737.8,1045.6,749.6,1057.4,764.1,1057.4z"/>
	<path class="st0" d="M709.1,1351.7h-177c-14.5,0-26.3,11.8-26.3,26.3c0,14.5,11.8,26.3,26.3,26.3h177c14.5,0,26.3-11.8,26.3-26.3
		C735.4,1363.4,723.7,1351.7,709.1,1351.7z"/>
	<path class="st0" d="M451.7,1351.7h-136c-14.5,0-26.3,11.8-26.3,26.3c0,14.5,11.8,26.3,26.3,26.3h136c14.5,0,26.3-11.8,26.3-26.3
		C477.9,1363.4,466.2,1351.7,451.7,1351.7z"/>
	<path class="st0" d="M1030,1351.7H798.8c-14.5,0-26.3,11.8-26.3,26.3c0,14.5,11.8,26.3,26.3,26.3H1030c14.5,0,26.3-11.8,26.3-26.3
		C1056.3,1363.4,1044.5,1351.7,1030,1351.7z"/>
	<path class="st0" d="M1342.7,1216.7h-126.4c-14.5,0-26.3,11.8-26.3,26.3c0,14.5,11.8,26.3,26.3,26.3h126.4
		c14.5,0,26.3-11.8,26.3-26.3C1368.9,1228.5,1357.2,1216.7,1342.7,1216.7z"/>
	<path class="st0" d="M1562.1,1269.2h178.5c14.5,0,26.3-11.8,26.3-26.3c0-14.5-11.8-26.3-26.3-26.3h-178.5
		c-14.5,0-26.3,11.8-26.3,26.3C1535.8,1257.5,1547.6,1269.2,1562.1,1269.2z"/>
	<path class="st0" d="M1472.8,1216.7h-40.9c-14.5,0-26.3,11.8-26.3,26.3c0,14.5,11.8,26.3,26.3,26.3h40.9
		c14.5,0,26.3-11.8,26.3-26.3C1499.1,1228.5,1487.3,1216.7,1472.8,1216.7z"/>
	<path class="st0" d="M1216.2,1555.6h126.4c14.5,0,26.3-11.8,26.3-26.3c0-14.5-11.8-26.3-26.3-26.3h-126.4
		c-14.5,0-26.3,11.8-26.3,26.3C1190,1543.8,1201.7,1555.6,1216.2,1555.6z"/>
	<path class="st0" d="M1562.1,1555.6h178.5c14.5,0,26.3-11.8,26.3-26.3c0-14.5-11.8-26.3-26.3-26.3h-178.5
		c-14.5,0-26.3,11.8-26.3,26.3C1535.8,1543.8,1547.6,1555.6,1562.1,1555.6z"/>
	<path class="st0" d="M1431.9,1555.6h40.9c14.5,0,26.3-11.8,26.3-26.3c0-14.5-11.8-26.3-26.3-26.3h-40.9
		c-14.5,0-26.3,11.8-26.3,26.3C1405.6,1543.8,1417.4,1555.6,1431.9,1555.6z"/>
	<path class="st0" d="M1342.7,1789.3h-126.4c-14.5,0-26.3,11.8-26.3,26.3c0,14.5,11.8,26.3,26.3,26.3h126.4
		c14.5,0,26.3-11.8,26.3-26.3C1368.9,1801.1,1357.2,1789.3,1342.7,1789.3z"/>
	<path class="st0" d="M1740.5,1789.3h-178.5c-14.5,0-26.3,11.8-26.3,26.3c0,14.5,11.8,26.3,26.3,26.3h178.5
		c14.5,0,26.3-11.8,26.3-26.3C1766.8,1801.1,1755.1,1789.3,1740.5,1789.3z"/>
	<path class="st0" d="M1472.8,1789.3h-40.9c-14.5,0-26.3,11.8-26.3,26.3c0,14.5,11.8,26.3,26.3,26.3h40.9
		c14.5,0,26.3-11.8,26.3-26.3C1499.1,1801.1,1487.3,1789.3,1472.8,1789.3z"/>
	<path class="st0" d="M351.7,468.4c-42.5,0-77.1,34.6-77.1,77.1c0,42.5,34.6,77.1,77.1,77.1s77.1-34.6,77.1-77.1
		C428.8,503,394.2,468.4,351.7,468.4z M351.7,570.1c-13.5,0-24.6-11-24.6-24.6c0-13.5,11-24.6,24.6-24.6c13.5,0,24.6,11,24.6,24.6
		C376.2,559.1,365.2,570.1,351.7,570.1z"/>
	<path class="st0" d="M548,468.4c-42.5,0-77.1,34.6-77.1,77.1c0,42.5,34.6,77.1,77.1,77.1s77.1-34.6,77.1-77.1
		C625.1,503,590.5,468.4,548,468.4z M548,570.1c-13.5,0-24.6-11-24.6-24.6c0-13.5,11-24.6,24.6-24.6c13.5,0,24.6,11,24.6,24.6
		C572.5,559.1,561.5,570.1,548,570.1z"/>
	<path class="st0" d="M744.3,468.4c-42.5,0-77.1,34.6-77.1,77.1c0,42.5,34.6,77.1,77.1,77.1c42.5,0,77.1-34.6,77.1-77.1
		C821.4,503,786.8,468.4,744.3,468.4z M744.3,570.1c-13.5,0-24.6-11-24.6-24.6c0-13.5,11-24.6,24.6-24.6c13.5,0,24.6,11,24.6,24.6
		C768.8,559.1,757.8,570.1,744.3,570.1z"/>
</g>
</svg>
