<?xml version="1.0" encoding="utf-8"?>
<!-- Generator: Adobe Illustrator 23.0.3, SVG Export Plug-In . SVG Version: 6.00 Build 0)  -->
<svg version="1.1" id="Calque_1" xmlns="http://www.w3.org/2000/svg" xmlns:xlink="http://www.w3.org/1999/xlink" x="0px" y="0px"
	 viewBox="0 0 2101 2482.6" style="enable-background:new 0 0 2101 2482.6;" xml:space="preserve">
<style type="text/css">
	.st0{fill:none;stroke:#BC3B9F;stroke-width:30;stroke-miterlimit:10;}
</style>
<title>logoSuccessData</title>
<path id="XMLID_6_" class="st0" d="M1755.6,1173.8c80.5,210.9,164,428.8,230.8,603.4c5.7,11.5,118.4,335,58.5,448.7"/>
<path id="XMLID_3_" class="st0" d="M361.9,1133.8c-0.4,3.1-70.4,630.9,162,698.8c162.6,47.6,415.6-222.2,547.5-451.8
	c70.3-121.8,159.3-348.3,113.1-479.4c-27.8-79.4-93.9-84.5-141.5-76"/>
<path id="XMLID_5_" class="st0" d="M532.4,2329.4c-108.4,77.9-229.5,129.6-328,91.5c-84.3-32.5-144.7-133.9-164-245.8
	c-13.2-98.8,12.2-244.2,92.8-437L638.4,402c0,0,103.7-351.9,412.3-360.3C1327.7,33.9,1463,402,1463,402s280.3,739.4,292.6,771.8
	c-14.1-19.9-238.9-327.2-478.8-365.4c-156-24.7-384.4,14.1-590.9,289.1c-131.4,174.6-189.4,292.8-226.6,426.7
	c-57.4,207.6,6.6,273.5,27.3,291.2"/>
<path id="XMLID_1_" class="st0" d="M2044.9,2225.9c-22,83.1-146,212.9-287.9,212.9c-189,0-321.3-232.7-573-292.3
	c-238-56.5-490.5,64.2-651.6,183c98.9-75.9,200.7-181.4,337.4-311.2c43.8-41.7,211.1-193.4,305.8-245.2
	c281.3-153.7,568-69.9,761.9,129.7C2037.1,2005.4,2067.4,2141.2,2044.9,2225.9z"/>
</svg>
