<?xml version="1.0" encoding="utf-8"?>
<!-- Generator: Adobe Illustrator 23.0.3, SVG Export Plug-In . SVG Version: 6.00 Build 0)  -->
<svg version="1.1" id="Calque_1" xmlns="http://www.w3.org/2000/svg" xmlns:xlink="http://www.w3.org/1999/xlink" x="0px" y="0px"
	 width="2101px" height="2482.6px" viewBox="0 0 2101 2482.6" style="enable-background:new 0 0 2101 2482.6;" xml:space="preserve"
	>
<style type="text/css">
	.st0{fill:#BC3B9F;}
</style>
<title>logoSuccessData</title>
<g>
	<path class="st0" d="M1852.8,1159.3h-102.3V975.5c0-44.2-35.9-80.1-80.1-80.1h-95.8v-70.8l-14.5-14.5c0,0,0,0,0-0.1l-213.9-213.9
		l-228.5-228.5H401.7v322.5H247.2c-44.2,0-80.1,35.9-80.1,80.1v1281h0.2c-0.1,16.5,5,32.7,15.3,46.2c14.4,18.8,36.1,29.5,59.7,29.5
		h1312.4c33.9,0,63.7-22.8,71.8-53.2l299.8-822.1v-5.2C1926.4,1195.9,1895.5,1159.3,1852.8,1159.3z M1670.4,954
		c11.8,0,21.5,9.6,21.5,21.5v183.8h-117.3V954H1670.4z M1134.7,467.7l339.7,339.7h-339.7V467.7z M460.3,426.2h615.8V866h439.8v29.3
		v263.9H540.4c-4.2,0-8.3,0.4-12.4,1c-28.6,4.8-52.4,25.6-59.5,52.1l-8.2,22.6V690.1V426.2z M225.8,770.2c0-11.8,9.6-21.5,21.5-21.5
		h154.5v646.1l-175.9,479.8V770.2z M1570.7,2056c-1.9,7.2-8.5,12.2-16,12.2H242.3c-7.1,0-11.3-4.1-13.1-6.5c-1.8-2.4-4.7-7.5-3.6-12
		l176.1-483v0.1l122-334.4l0.8-2.4c1.9-7.2,8.5-12.2,16-12.2h975.5h58.6h175.9h102.3c11.1,0,14,16,14.7,24L1570.7,2056z"/>
	<path class="st0" d="M636.3,866h293.2c16.2,0,29.3-13.1,29.3-29.3s-13.1-29.3-29.3-29.3H636.3c-16.2,0-29.3,13.1-29.3,29.3
		C606.9,852.9,620.1,866,636.3,866z"/>
	<path class="st0" d="M636.3,660.8h293.2c16.2,0,29.3-13.1,29.3-29.3s-13.1-29.3-29.3-29.3H636.3c-16.2,0-29.3,13.1-29.3,29.3
		S620.1,660.8,636.3,660.8z"/>
	<path class="st0" d="M636.3,1071.3H1340c16.2,0,29.3-13.1,29.3-29.3s-13.1-29.3-29.3-29.3H636.3c-16.2,0-29.3,13.1-29.3,29.3
		S620.1,1071.3,636.3,1071.3z"/>
</g>
</svg>
