<?xml version="1.0" encoding="utf-8"?>
<!-- Generator: Adobe Illustrator 23.0.3, SVG Export Plug-In . SVG Version: 6.00 Build 0)  -->
<svg version="1.1" id="Layer_1" xmlns="http://www.w3.org/2000/svg" xmlns:xlink="http://www.w3.org/1999/xlink" x="0px" y="0px"
	 viewBox="0 0 4191.3 2482.6" style="enable-background:new 0 0 4191.3 2482.6;" xml:space="preserve">
<style type="text/css">
	.st0{fill:#FFFFFF;}
</style>
<g>
	<path class="st0" d="M2581.4,1227v-21.1V929.2v-21.1c0-9.6-3.9-19-10.7-25.7L2173,484.7c-16.3-16.3-46.3-21.2-73.9,6.3
		l-494.4,494.4L1378.2,1212l-6.3,6.3c-11.5,11.5-11.1,34.2-1,51.4c0.5,0.9,0.9,1.8,1.5,2.6c1.7,2.6,3.7,5,5.9,7.2l549.2,549.2
		c2.2,2.2,4.6,4.1,7.2,5.9c0.8,0.6,1.8,1,2.6,1.5c17.2,10.1,39.9,10.5,51.4-1l6.3-6.3l226.6-226.6l342.9-342.9
		C2574.9,1248.6,2581.4,1239.6,2581.4,1227z M2542.7,1183.1l-115.6-115.6L2542.7,952V1183.1z M2180.4,546.8
		c-7.6,7.6-7.6,19.8,0,27.4c7.6,7.6,19.8,7.6,27.4,0l27.4,27.4c-7.6,7.6-7.6,19.8,0,27.4s19.8,7.6,27.4,0l27.4,27.4
		c-7.6,7.6-7.6,19.8,0,27.4s19.8,7.6,27.4,0l27.4,27.4c-7.6,7.6-7.6,19.8,0,27.4c7.6,7.6,19.8,7.6,27.4,0l27.4,27.4
		c-7.6,7.6-7.6,19.8,0,27.4s19.8,7.6,27.4,0l27.4,27.4c-7.6,7.6-7.6,19.8,0,27.4c7.6,7.6,19.8,7.6,27.4,0l27.4,27.4
		c-7.6,7.6-7.6,19.8,0,27.4c7.6,7.6,19.8,7.6,27.4,0l0.8,0.8c-2.2,1.3-4.3,2.7-6.2,4.6l-49.5,49.5l-54.8,54.8l-54.8,54.8l27.4,27.4
		c-7.6,7.6-7.6,19.8,0,27.4s19.8,7.6,27.4,0l27.4,27.4c-7.6,7.6-7.6,19.8,0,27.4s19.8,7.6,27.4,0l27.4,27.4
		c-7.6,7.6-7.6,19.8,0,27.4s19.8,7.6,27.4,0c0.3-0.3,0.4-0.6,0.6-0.9c0.1,0,0.1,0.1,0.2,0.1c-0.2,0.2-0.3,0.3-0.5,0.5l-0.3,0.3
		l-54.8,54.8l-54.8,54.8l-54.8,54.8l-9.2,9.2l-0.1-4.4c3.4-0.8,6.6-2.2,9.3-4.8c7.6-7.6,7.6-19.8,0-27.4c-2.9-2.9-6.5-4.3-10.3-5
		l-0.5-17.3c3.9-0.6,7.7-2.1,10.7-5.1c7.6-7.6,7.6-19.8,0-27.4c-3.3-3.3-7.4-4.8-11.7-5.3l-0.4-16.8c4.4-0.4,8.7-2,12.1-5.4
		c7.6-7.6,7.6-19.8,0-27.4c-3.6-3.6-8.3-5.4-13.1-5.6l-0.4-16.2c4.9,0,9.8-1.9,13.5-5.6c7.6-7.6,7.6-19.8,0-27.4
		c-4-4-9.3-5.7-14.5-5.5l-0.4-15.5c0-0.3-0.2-0.6-0.2-0.9c5.4,0.4,10.9-1.3,15.1-5.4c7.6-7.6,7.6-19.8,0-27.4s-19.8-7.6-27.4,0
		c-4.2,4.2-5.8,9.8-5.4,15.3c-0.8-0.1-1.5-0.4-2.4-0.4l-14.4,0.7c0.5-5.6-1.1-11.3-5.3-15.6c-7.6-7.6-19.8-7.6-27.4,0
		c-4.7,4.7-6.1,11.2-5,17.3l-17.6,0.8c1.5-6.3,0.1-13.1-4.8-18.1c-7.6-7.6-19.8-7.6-27.4,0c-5.3,5.3-6.7,13-4.5,19.7l-18.6,0.8
		c2.6-6.9,1.2-15-4.3-20.6c-7.6-7.6-19.8-7.6-27.4,0c-6,6-7,14.9-3.5,22.2l-21.1,1c4.2-7.4,3.5-16.8-2.8-23.1
		c-7.6-7.6-19.8-7.6-27.4,0c-6.7,6.7-7.1,17-1.9,24.6l-24.4,1.1c6.1-7.6,5.9-18.7-1.1-25.7c-7.6-7.6-19.8-7.6-27.4,0
		c-7.5,7.5-7.5,19.4-0.3,27l-14.6,0.7v-130c0-10.1-7.8-18.5-17.8-19.3l-162.7-13.1c1.2-0.7,2.5-1.3,3.5-2.3c7.6-7.6,7.6-19.8,0-27.4
		c-7.6-7.6-19.8-7.6-27.4,0s-7.6,19.8,0,27.4c0.2,0.2,0.5,0.3,0.7,0.5l-27-2.2c6.1-7.6,5.9-18.6-1.1-25.7c-7.6-7.6-19.8-7.6-27.4,0
		c-6.3,6.3-7,15.8-2.8,23.2l-20.7-1.7c3.1-7.1,1.9-15.7-3.9-21.5c-7.6-7.6-19.8-7.6-27.4,0c-5.1,5.1-6.4,12.2-4.7,18.6l-17.7-1.4
		c1.1-6.1-0.3-12.5-5-17.2c-7.6-7.6-19.8-7.6-27.4,0c-3.9,3.9-5.7,9-5.6,14.1l-33.3-2.7l38.9-38.9c7.6,7.6,19.8,7.6,27.4,0
		s7.6-19.8,0-27.4l27.4-27.4c7.6,7.6,19.8,7.6,27.4,0s7.6-19.8,0-27.4l27.4-27.4c7.6,7.6,19.8,7.6,27.4,0s7.6-19.8,0-27.4l27.4-27.4
		c7.6,7.6,19.8,7.6,27.4,0s7.6-19.8,0-27.4l27.4-27.4c7.6,7.6,19.8,7.6,27.4,0s7.6-19.8,0-27.4l27.4-27.4c7.6,7.6,19.8,7.6,27.4,0
		s7.6-19.8,0-27.4L2016,629c7.6,7.6,19.8,7.6,27.4,0s7.6-19.8,0-27.4l27.4-27.4c7.6,7.6,19.8,7.6,27.4,0c7.6-7.6,7.6-19.8,0-27.4
		l27.4-27.4c7.6,7.6,19.8,7.6,27.4,0L2180.4,546.8z M1405.6,1252.1c-1-1-1.5-2.2-2-3.4c-1.1-3.2-0.5-6.8,2-9.3l199.2-199.2
		l561.9,561.9l-199.2,199.2c-2.5,2.5-6.1,3.2-9.3,2c-1.2-0.5-2.4-1.1-3.4-2L1405.6,1252.1z M1655.8,1036.3l358.6,28.8
		c0.6,0.8,0.9,1.7,1.6,2.4c0.3,0.3,0.8,0.5,1.2,0.8V1348c0,10.7,8.7,19.4,19.4,19.4c10.7,0,19.4-8.7,19.4-19.4v-131.8l263.2-12
		l6.1,239.1l-131.1,131.1L1655.8,1036.3z"/>
	<path class="st0" d="M1739.1,1277c-0.8-8.3-3.2-16.3-7-23.9c-3.9-7.6-8.7-14.4-14.6-20.2l-39.7-39.7l-138.1,138.1l22.5,22.5
		l49.8-49.8l16.7,16.7c7.2,7.2,14.9,12.8,23,16.7c8.1,3.9,16.2,6,24.4,6.4c8.1,0.4,16.2-1.1,24.3-4.4c8.1-3.3,15.6-8.5,22.6-15.5
		c6.6-6.6,11.2-14,13.7-22.1C1739.1,1293.6,1739.9,1285.4,1739.1,1277z M1685,1314.1c-5.2,2.4-9.9,3.6-14.3,3.5s-8.4-1.1-12-2.8
		c-3.6-1.8-6.8-4-9.6-6.7l-20.6-20.6l54.7-54.7l16.9,16.9c5.7,5.7,9.5,11.3,11.2,16.6c1.7,5.3,2.2,10.3,1.4,14.9
		c-0.8,4.6-2.3,8.7-4.6,12.3c-2.3,3.5-4.6,6.5-6.8,8.7C1695.5,1307.7,1690.2,1311.7,1685,1314.1z"/>
	<polygon class="st0" points="1773.1,1478.9 1814.1,1329.6 1791.3,1306.7 1653.2,1444.8 1676.1,1467.7 1771.2,1372.5 1730.2,1521.8 
		1753.1,1544.7 1891.1,1406.6 1868.3,1383.7 	"/>
	<path class="st0" d="M1898.1,1578l23.4,23.4l-34.1,34.1c-2.4,0.4-5-0.1-7.9-1.5s-5.7-3-8.4-4.9c-2.8-1.9-5.4-3.9-7.9-6
		s-4.4-3.9-5.8-5.2c-4.5-4.5-7.7-9.8-9.7-16c-1.9-6.2-2.3-13.1-1.1-20.6s4.3-15.7,9.4-24.4s12.2-17.8,21.4-27.3
		c9.7-9.5,18.9-16.6,27.4-21.4c8.5-4.7,16.5-7.6,24-8.4c7.5-0.9,14.2-0.1,20.1,2.3s11.2,6,15.8,10.6c4.1,4.1,7.3,8.9,9.6,14.4
		c2.2,5.5,3.1,11.6,2.4,18.2l29.4,1.7c-0.1-10.1-2.2-19.7-6.2-28.7s-9.7-17.2-17.2-24.7c-8.1-8.1-17.2-14.2-27.3-18.1
		c-10.1-3.9-20.6-5.6-31.7-4.9s-22.5,4-34.2,9.8c-11.7,5.9-23.4,14.6-35,26.2s-20.4,23.3-26.3,35.1s-9.3,23.2-9.9,34.3
		c-0.7,11.1,0.9,21.5,4.9,31.5c3.9,9.9,10,19,18.3,27.3c4.1,4.1,8.6,8,13.4,11.5s9.9,6.6,15.4,9c5.4,2.4,11.1,4.3,17,5.5
		s12,1.5,18.5,0.8l53.4-53.4l-45.7-45.7L1898.1,1578z"/>
	<circle class="st0" cx="2139.3" cy="560.5" r="19.4"/>
	<circle class="st0" cx="2194.1" cy="615.3" r="19.4"/>
	<circle class="st0" cx="2248.9" cy="670.1" r="19.4"/>
	<circle class="st0" cx="2303.7" cy="725" r="19.4"/>
	<circle class="st0" cx="2358.6" cy="779.8" r="19.4"/>
	<circle class="st0" cx="2413.4" cy="834.6" r="19.4"/>
	<circle class="st0" cx="2468.2" cy="889.4" r="19.4"/>
	<circle class="st0" cx="2468.2" cy="944.2" r="19.4"/>
	<circle class="st0" cx="2413.4" cy="889.4" r="19.4"/>
	<circle class="st0" cx="2358.6" cy="834.6" r="19.4"/>
	<circle class="st0" cx="2303.7" cy="779.8" r="19.4"/>
	<circle class="st0" cx="2248.9" cy="725" r="19.4"/>
	<circle class="st0" cx="2194.1" cy="670.1" r="19.4"/>
	<circle class="st0" cx="2139.3" cy="615.3" r="19.4"/>
	<circle class="st0" cx="2084.5" cy="615.3" r="19.4"/>
	<circle class="st0" cx="2139.3" cy="670.1" r="19.4"/>
	<circle class="st0" cx="2194.1" cy="725" r="19.4"/>
	<circle class="st0" cx="2248.9" cy="779.8" r="19.4"/>
	<circle class="st0" cx="2303.7" cy="834.6" r="19.4"/>
	<circle class="st0" cx="2358.6" cy="889.4" r="19.4"/>
	<circle class="st0" cx="2413.4" cy="944.2" r="19.4"/>
	<circle class="st0" cx="2413.4" cy="999" r="19.4"/>
	<circle class="st0" cx="2358.6" cy="944.2" r="19.4"/>
	<circle class="st0" cx="2303.7" cy="889.4" r="19.4"/>
	<circle class="st0" cx="2248.9" cy="834.6" r="19.4"/>
	<circle class="st0" cx="2194.1" cy="779.8" r="19.4"/>
	<circle class="st0" cx="2139.3" cy="725" r="19.4"/>
	<circle class="st0" cx="2084.5" cy="670.1" r="19.4"/>
	
		<ellipse transform="matrix(0.1602 -0.9871 0.9871 0.1602 1043.1302 2566.2529)" class="st0" cx="2029.7" cy="670.1" rx="19.4" ry="19.4"/>
	<circle class="st0" cx="2194.1" cy="834.6" r="19.4"/>
	<circle class="st0" cx="2248.9" cy="889.4" r="19.4"/>
	<circle class="st0" cx="2303.7" cy="944.2" r="19.4"/>
	<circle class="st0" cx="2358.6" cy="999" r="19.4"/>
	<circle class="st0" cx="2358.6" cy="1053.9" r="19.4"/>
	<circle class="st0" cx="2303.7" cy="999" r="19.4"/>
	<circle class="st0" cx="2248.9" cy="944.2" r="19.4"/>
	<circle class="st0" cx="2194.1" cy="889.4" r="19.4"/>
	<circle class="st0" cx="2194.1" cy="944.2" r="19.4"/>
	<circle class="st0" cx="2248.9" cy="999" r="19.4"/>
	<circle class="st0" cx="2303.7" cy="1053.9" r="19.4"/>
	<circle class="st0" cx="2358.6" cy="1108.7" r="19.4"/>
	<circle class="st0" cx="2413.4" cy="1163.5" r="19.4"/>
	<circle class="st0" cx="2413.4" cy="1218.3" r="19.4"/>
	<circle class="st0" cx="2413.4" cy="1327.9" r="19.4"/>
	<circle class="st0" cx="2413.4" cy="1273.1" r="19.4"/>
	<circle class="st0" cx="2468.2" cy="1273.1" r="19.4"/>
	<circle class="st0" cx="2468.2" cy="1218.3" r="19.4"/>
	<circle class="st0" cx="2303.7" cy="1108.7" r="19.4"/>
	<circle class="st0" cx="2248.9" cy="1053.9" r="19.4"/>
	<circle class="st0" cx="2194.1" cy="999" r="19.4"/>
	<circle class="st0" cx="2139.3" cy="944.2" r="19.4"/>
	<path class="st0" d="M1906.3,793.5c5.8,5.8,14.4,7.1,21.5,3.9c-2.3,6-4,12.1-5.2,18.3c-5.8-0.8-11.9,0.7-16.4,5.2
		c-7.6,7.6-7.6,19.8,0,27.4c4.4,4.4,10.4,5.9,16.1,5.2c1,6.1,2.6,12,4.6,17.9c-7-2.7-15.1-1.3-20.7,4.3c-7.6,7.6-7.6,19.8,0,27.4
		c7.6,7.6,19.8,7.6,27.4,0c2.4-2.4,3.8-5.4,4.7-8.5c4,6.1,8.6,11.9,14,17.2c5.4,5.4,11.1,10,17.2,14c-3.1,0.9-6.1,2.2-8.5,4.7
		c-7.6,7.6-7.6,19.8,0,27.4c7.6,7.6,19.8,7.6,27.4,0c5.6-5.6,7-13.8,4.3-20.7c5.9,2,11.8,3.6,17.9,4.6c-0.7,5.7,0.8,11.7,5.2,16.1
		c7.6,7.6,19.8,7.6,27.4,0c4.5-4.5,6-10.6,5.2-16.4c6.2-1.2,12.4-2.9,18.3-5.2c-3.2,7.1-1.9,15.7,3.9,21.5c7.6,7.6,19.8,7.6,27.4,0
		c7.6-7.6,7.6-19.8,0-27.4c-2.8-2.8-6.3-4.2-9.9-4.9c5.9-3.9,11.6-8.5,16.8-13.7c6-6,11.1-12.7,15.4-19.7c0.6,4,2.1,7.9,5.1,10.9
		c7.6,7.6,19.8,7.6,27.4,0s7.6-19.8,0-27.4c-6.3-6.3-15.7-7-23.1-2.8c2.4-6.4,4.1-13,5.2-19.7c6.3,1.4,13.1,0,18-4.9
		c7.6-7.6,7.6-19.8,0-27.4c-4.9-4.9-11.9-6.3-18.2-4.8c-1.2-6.9-3.2-13.7-5.8-20.4c7.5,4.8,17.4,4.3,24-2.3c7.6-7.6,7.6-19.8,0-27.4
		s-19.8-7.6-27.4,0c-3.4,3.4-5.1,7.9-5.4,12.3c-4.3-6.8-9.3-13.3-15.2-19.2s-12.4-10.9-19.2-15.2c4.5-0.3,8.9-2,12.3-5.4
		c7.6-7.6,7.6-19.8,0-27.4c-7.6-7.6-19.8-7.6-27.4,0c-6.6,6.6-7.1,16.5-2.3,24c-6.6-2.6-13.4-4.5-20.4-5.8
		c1.5-6.3,0.2-13.3-4.8-18.2c-7.6-7.6-19.8-7.6-27.4,0c-4.9,4.9-6.3,11.7-4.9,18c-6.7,1.1-13.3,2.9-19.7,5.2
		c4.2-7.4,3.5-16.8-2.8-23.1c-7.6-7.6-19.8-7.6-27.4,0s-7.6,19.8,0,27.4c3.1,3.1,6.9,4.5,10.9,5.1c-7,4.3-13.6,9.4-19.7,15.4
		c-5.2,5.2-9.8,10.9-13.7,16.8c-0.7-3.6-2.1-7.1-4.9-9.9c-7.6-7.6-19.8-7.6-27.4,0C1898.8,773.6,1898.8,785.9,1906.3,793.5z
		 M2077.6,786.6c27,27,27,70.9,0,97.8c-27,27-70.9,27-97.8,0s-27-70.9,0-97.8S2050.7,759.7,2077.6,786.6z"/>
	<circle class="st0" cx="2139.3" cy="999" r="19.4"/>
	<circle class="st0" cx="2194.1" cy="1053.9" r="19.4"/>
	<circle class="st0" cx="2248.9" cy="1108.7" r="19.4"/>
	<circle class="st0" cx="2194.1" cy="1108.7" r="19.4"/>
	<circle class="st0" cx="2139.3" cy="1053.9" r="19.4"/>
	<circle class="st0" cx="2084.5" cy="999" r="19.4"/>
	<circle class="st0" cx="1865.2" cy="834.6" r="19.4"/>
	
		<ellipse transform="matrix(0.1602 -0.9871 0.9871 0.1602 718.4772 2842.469)" class="st0" cx="2029.7" cy="999" rx="19.4" ry="19.4"/>
	<circle class="st0" cx="2084.5" cy="1053.9" r="19.4"/>
	<circle class="st0" cx="2139.3" cy="1108.7" r="19.4"/>
	<circle class="st0" cx="2084.5" cy="1108.7" r="19.4"/>
	<circle class="st0" cx="1974.9" cy="999" r="19.4"/>
	<circle class="st0" cx="1920" cy="944.2" r="19.4"/>
	<circle class="st0" cx="1865.2" cy="889.4" r="19.4"/>
	<circle class="st0" cx="1810.4" cy="889.4" r="19.4"/>
	<circle class="st0" cx="1865.2" cy="944.2" r="19.4"/>
	<circle class="st0" cx="1920" cy="999" r="19.4"/>
	<circle class="st0" cx="1810.4" cy="944.2" r="19.4"/>
	<circle class="st0" cx="1755.6" cy="944.2" r="19.4"/>
</g>
</svg>
