<?xml version="1.0" encoding="utf-8"?>
<!-- Generator: Adobe Illustrator 23.0.3, SVG Export Plug-In . SVG Version: 6.00 Build 0)  -->
<svg version="1.1" id="Layer_1" xmlns="http://www.w3.org/2000/svg" xmlns:xlink="http://www.w3.org/1999/xlink" x="0px" y="0px"
	 viewBox="0 0 4191.3 2482.6" style="enable-background:new 0 0 4191.3 2482.6;" xml:space="preserve">
<style type="text/css">
	.st0{fill:#FFFFFF;}
</style>
<g>
	<path class="st0" d="M2581.4,1227v-21.1V929.2v-21.1c0-9.6-3.9-19-10.7-25.7L2173,484.7c-16.3-16.3-46.3-21.2-73.9,6.3
		l-494.4,494.4L1378.2,1212l-6.3,6.3c-11.5,11.5-11.1,34.2-1,51.4c0.5,0.9,0.9,1.8,1.5,2.6c1.7,2.6,3.7,5,5.9,7.2l549.2,549.2
		c2.2,2.2,4.6,4.1,7.2,5.9c0.8,0.6,1.8,1,2.6,1.5c17.2,10.1,39.9,10.5,51.4-1l6.3-6.3l226.6-226.6l342.9-342.9
		C2574.9,1248.6,2581.4,1239.6,2581.4,1227z M2542.7,1183.1l-115.6-115.6L2542.7,952V1183.1z M1405.6,1252.1c-1-1-1.5-2.2-2-3.4
		c-1.1-3.2-0.5-6.8,2-9.3l199.2-199.2l561.9,561.9l-199.2,199.2c-2.5,2.5-6.1,3.2-9.3,2c-1.2-0.5-2.4-1.1-3.4-2L1405.6,1252.1z
		 M1632.3,1012.7l494.4-494.4c3-3,13.1-12.2,19-6.3l391.9,391.9c-2.2,1.3-4.3,2.7-6.2,4.6l-159.1,159.1l159.1,159.1
		c1.9,1.8,4,3.3,6.1,4.5c-0.2,0.2-0.3,0.3-0.5,0.5l-342.9,342.9L1632.3,1012.7z"/>
	<path class="st0" d="M1739.1,1277c-0.8-8.3-3.2-16.3-7-23.9c-3.9-7.6-8.7-14.4-14.6-20.2l-39.7-39.7l-138.1,138.1l22.5,22.5
		l49.8-49.8l16.7,16.7c7.2,7.2,14.9,12.8,23,16.7c8.1,3.9,16.2,6,24.4,6.4c8.1,0.4,16.2-1.1,24.3-4.4c8.1-3.3,15.6-8.5,22.6-15.5
		c6.6-6.6,11.2-14,13.7-22.1C1739.1,1293.6,1739.9,1285.4,1739.1,1277z M1685,1314.1c-5.2,2.4-9.9,3.6-14.3,3.5s-8.4-1.1-12-2.8
		c-3.6-1.8-6.8-4-9.6-6.7l-20.6-20.6l54.7-54.7l16.9,16.9c5.7,5.7,9.5,11.3,11.2,16.6c1.7,5.3,2.2,10.3,1.4,14.9
		c-0.8,4.6-2.3,8.7-4.6,12.3c-2.3,3.5-4.6,6.5-6.8,8.7C1695.5,1307.7,1690.2,1311.7,1685,1314.1z"/>
	<path class="st0" d="M1866,1421.9c0.3-11.9-2.1-24.1-7.2-36.6s-13.5-24.5-25.1-36.2l-41.6-41.6L1654,1445.6l52.3,52.3
		c1.7,1.7,4.6,4.2,8.7,7.4c4.1,3.2,9,6.2,15,9c5.9,2.8,12.8,5,20.6,6.6s16.3,1.5,25.5-0.2s19-5.3,29.5-11
		c10.5-5.6,21.4-14.1,32.8-25.5c8.2-8.2,14.8-17.7,19.8-28.4C1863,1445.1,1865.6,1433.8,1866,1421.9z M1762.8,1492.2
		c-16.5,3-32.3-3.1-47.6-18.4l-22.3-22.3l104.5-104.5l13.1,13.1c10.7,10.7,18.1,20.9,22,30.5s5.6,18.6,5,27.1s-3.1,16.2-7.3,23.2
		c-4.2,7-9.3,13.4-15,19.1C1796.8,1478.5,1779.3,1489.2,1762.8,1492.2z"/>
	<polygon class="st0" points="1798,1589.7 1820.9,1612.5 1883.1,1550.3 1940.8,1608 1956.2,1592.7 1898.5,1534.9 1941.9,1491.5 
		2005.4,1555 2022.5,1537.9 1936.1,1451.6 	"/>
	<path class="st0" d="M2262.2,1203.1c-12.6-12.6-29.7-26.4-50.9-41.1c1.5-51.7,14.2-116.7,33.9-173.4c95.5-58.8,97.2-78.9,98.3-88.1
		c1.2-9.8,4-24.7-2.9-31.7c-2.9-2.9-12.1-9.5-16.3-11.6c-10.5-5.3-20.9-3.4-32.2,1.1c-32.3,13-57.7,64.9-73.8,108.3
		c-58.2,34.8-133.4,70.8-199.2,95.4c-75.7-28.1-126.7-32.4-151.5-12.6c-9,7.2-19,21-15.4,46c1,6.8,4,13,8.8,17.7l0,0
		c12,12,33.3,14.9,67,9.3c24.6-4.1,55.1-12.7,90.9-25.6c52.7,20.7,112.6,51.6,159.7,82.3c0.9,42.4,9.7,72.4,26.4,89
		c12.3,12.3,28.4,17.2,46.7,14.1c19-3.2,30.8-11.3,34.9-24.3C2291.6,1242.6,2283.6,1224.5,2262.2,1203.1z M1884.4,1090.4
		c-1.5-11.3,2.2-14.3,3.6-15.4c8.5-6.8,33.9-8.4,79.7,4.5C1904.5,1098.3,1887.1,1091.8,1884.4,1090.4z M2310.9,888.7
		c0.8,0.4-0.8,29.4-42.8,45.4C2268.6,894.5,2309.1,887.8,2310.9,888.7z M2063,1080c47.1-19.2,96.6-42.9,140.3-67
		c-12.3,43-20.6,88.4-23.6,128.4C2143.6,1118.9,2102.8,1097.5,2063,1080z M2246.3,1250.2c-10.1,1.7-19.4-7.3-22.6-10.5
		c-7.3-7.3-5.7-14.4-8.3-34.1c10.4,8,19.4,16.4,26.3,23.3c12.2,12.2,12.6,16.2,13.4,18.8C2253.9,1248.4,2251.2,1249.4,2246.3,1250.2
		z"/>
</g>
</svg>
