<?xml version="1.0" encoding="utf-8"?>
<!-- Generator: Adobe Illustrator 23.0.3, SVG Export Plug-In . SVG Version: 6.00 Build 0)  -->
<svg version="1.1" id="Layer_1" xmlns="http://www.w3.org/2000/svg" xmlns:xlink="http://www.w3.org/1999/xlink" x="0px" y="0px"
	 viewBox="0 0 4191.3 2482.6" style="enable-background:new 0 0 4191.3 2482.6;" xml:space="preserve">
<style type="text/css">
	.st0{fill:#FFFFFF;}
</style>
<g>
	<path class="st0" d="M2581.4,1227v-21.1V929.2v-21.1c0-9.6-3.9-19-10.7-25.7L2173,484.7c-16.3-16.3-46.3-21.2-73.9,6.3
		l-494.4,494.4L1378.2,1212l-6.3,6.3c-11.5,11.5-11.1,34.2-1,51.4c0.5,0.9,0.9,1.8,1.5,2.6c1.7,2.6,3.7,5,5.9,7.2l549.2,549.2
		c2.2,2.2,4.6,4.1,7.2,5.9c0.8,0.6,1.8,1,2.6,1.5c17.2,10.1,39.9,10.5,51.4-1l6.3-6.3l226.6-226.6l342.9-342.9
		C2574.9,1248.6,2581.4,1239.6,2581.4,1227z M2542.7,1183.1l-115.6-115.6L2542.7,952V1183.1z M1405.6,1252.1c-1-1-1.5-2.2-2-3.4
		c-1.1-3.2-0.5-6.8,2-9.3l199.2-199.2l561.9,561.9l-199.2,199.2c-2.5,2.5-6.1,3.2-9.3,2c-1.2-0.5-2.4-1.1-3.4-2L1405.6,1252.1z
		 M1632.3,1012.7l494.4-494.4c3-3,13.1-12.2,19-6.3l391.9,391.9c-2.2,1.3-4.3,2.7-6.2,4.6l-159.1,159.1l159.1,159.1
		c1.9,1.8,4,3.3,6.1,4.5c-0.2,0.2-0.3,0.3-0.5,0.5l-342.9,342.9L1632.3,1012.7z"/>
	<path class="st0" d="M1746.5,1302.4c0.3-11.9-2.1-24.1-7.2-36.6s-13.5-24.5-25.1-36.2l-41.6-41.6l-138.1,138.1l52.3,52.3
		c1.7,1.7,4.6,4.2,8.7,7.4c4.1,3.2,9,6.2,15,9c5.9,2.8,12.8,5,20.6,6.6s16.3,1.5,25.5-0.2s19-5.3,29.5-11
		c10.5-5.6,21.4-14.1,32.8-25.5c8.2-8.2,14.8-17.7,19.8-28.4C1743.5,1325.6,1746.2,1314.3,1746.5,1302.4z M1643.3,1372.7
		c-16.5,3-32.3-3.1-47.6-18.4l-22.3-22.3l104.5-104.5l13.1,13.1c10.7,10.7,18.1,20.9,22,30.5s5.6,18.6,5,27.1s-3.1,16.2-7.3,23.2
		c-4.2,7-9.3,13.4-15,19.1C1677.3,1359,1659.8,1369.7,1643.3,1372.7z"/>
	<path class="st0" d="M1888.4,1435.3c0.7-11.1-0.9-21.6-4.8-31.6s-9.9-19.1-18.2-27.4c-8.2-8.2-17.3-14.3-27.4-18.2
		c-10-3.9-20.5-5.5-31.6-4.8s-22.5,4-34.2,9.8c-11.7,5.9-23.4,14.6-35,26.2s-20.4,23.3-26.3,35.1c-5.9,11.8-9.3,23.2-9.9,34.3
		c-0.7,11.1,0.9,21.5,4.9,31.5c3.9,9.9,10,19,18.3,27.3c8.2,8.2,17.3,14.3,27.3,18.3s20.4,5.6,31.5,4.9s22.5-4,34.3-9.9
		s23.5-14.7,35.1-26.3c11.6-11.6,20.4-23.3,26.2-35C1884.4,1457.8,1887.7,1446.4,1888.4,1435.3z M1802,1503.2
		c-8.6,4.8-16.6,7.6-24,8.4s-14.2,0-20.1-2.3c-6-2.4-11.3-5.9-15.9-10.5c-4.5-4.5-7.8-9.7-9.9-15.7s-2.7-12.7-1.7-20
		c1-7.4,3.9-15.3,8.7-23.7c4.8-8.4,11.8-17.4,21.1-26.9c9.7-9.5,18.9-16.6,27.4-21.4c8.5-4.7,16.5-7.6,24-8.4
		c7.5-0.9,14.2-0.1,20.1,2.3s11.2,6,15.8,10.6c4.5,4.5,7.8,9.7,10,15.7c2.2,5.9,2.8,12.6,1.7,20c-1.1,7.4-4,15.3-8.7,23.7
		c-4.8,8.4-11.7,17.3-21,26.8C1819.7,1491.2,1810.6,1498.4,1802,1503.2z"/>
	<path class="st0" d="M1955.8,1526.9c7.5-0.9,14.2-0.1,20.1,2.3s11.2,6,15.8,10.6c4.1,4.1,7.3,8.9,9.5,14.3s3,11.5,2.5,18.3
		l29.4,1.7c-0.1-10.1-2.2-19.7-6.2-28.7s-9.7-17.2-17.2-24.7c-8.1-8.1-17.2-14.2-27.3-18.1c-10.1-3.9-20.6-5.6-31.7-4.9
		s-22.5,4-34.2,9.8c-11.7,5.9-23.4,14.6-35,26.2s-20.4,23.3-26.3,35.1s-9.3,23.2-9.9,34.3c-0.7,11.1,0.9,21.5,4.9,31.5
		c3.9,9.9,10,19,18.3,27.3c7.5,7.5,15.7,13.2,24.7,17.2s18.5,6,28.7,6.2l-1.9-29.2c-6.9,0.4-13.1-0.6-18.6-2.9s-10.6-5.7-15.1-10.2
		s-7.8-9.7-9.9-15.7s-2.7-12.7-1.7-20s3.9-15.3,8.7-23.7c4.8-8.4,11.8-17.4,21.1-26.9c9.7-9.5,18.9-16.6,27.4-21.4
		C1940.3,1530.6,1948.3,1527.7,1955.8,1526.9z"/>
	<path class="st0" d="M2043.4,738.7l82.2,82.2c7.6,7.6,19.8,7.6,27.4,0s7.6-19.8,0-27.4l-82.2-82.2c-7.6-7.6-19.8-7.6-27.4,0
		C2035.8,718.8,2035.8,731.1,2043.4,738.7z"/>
	<path class="st0" d="M1974.9,807.2l123.3,123.3c7.6,7.6,19.8,7.6,27.4,0c7.6-7.6,7.6-19.8,0-27.4l-123.3-123.3
		c-7.6-7.6-19.8-7.6-27.4,0C1967.3,787.3,1967.3,799.6,1974.9,807.2z"/>
	<path class="st0" d="M2153,985.3c3.6,3.6,8.6,5.6,13.7,5.8c5.1-0.1,10.1-2.2,13.7-5.8c3.6-3.6,5.6-8.6,5.8-13.7
		c0-10.1-9.3-19.5-19.5-19.5c-5.1,0.1-10.1,2.2-13.7,5.8c-3.6,3.6-5.6,8.6-5.8,13.7C2147.4,976.7,2149.4,981.8,2153,985.3z"/>
	<path class="st0" d="M2207.8,1040.1l109.6,109.6c7.6,7.6,19.8,7.6,27.4,0c7.6-7.6,7.6-19.8,0-27.4l-109.6-109.6
		c-7.6-7.6-19.8-7.6-27.4,0S2200.3,1032.6,2207.8,1040.1z"/>
	<path class="st0" d="M1783,979.6c-5.1,0.1-10.1,2.2-13.7,5.8s-5.6,8.6-5.8,13.7c0.1,5.1,2.2,10.1,5.8,13.7
		c3.6,3.6,8.6,5.6,13.7,5.8c5.1-0.1,10.1-2.2,13.7-5.8c3.7-3.7,5.6-8.6,5.8-13.7C1802.5,988.9,1793.1,979.6,1783,979.6z"/>
	<path class="st0" d="M1961.1,1149.8l-109.6-109.6c-7.6-7.6-19.8-7.6-27.4,0s-7.6,19.8,0,27.4l109.6,109.6c7.6,7.6,19.8,7.6,27.4,0
		C1968.7,1169.6,1968.7,1157.3,1961.1,1149.8z"/>
	<path class="st0" d="M2427.1,1204.6l-27.4-27.4c-7.6-7.6-19.8-7.6-27.4,0c-7.6,7.6-7.6,19.8,0,27.4l27.4,27.4
		c7.6,7.6,19.8,7.6,27.4,0S2434.7,1212.2,2427.1,1204.6z"/>
	<path class="st0" d="M1906.3,875.7l301.5,301.5c7.6,7.6,19.8,7.6,27.4,0c7.6-7.6,7.6-19.8,0-27.4l-301.5-301.5
		c-7.6-7.6-19.8-7.6-27.4,0C1898.8,855.9,1898.8,868.1,1906.3,875.7z"/>
	<path class="st0" d="M2358.6,1273.1l-82.2-82.2c-7.6-7.6-19.8-7.6-27.4,0c-7.6,7.6-7.6,19.8,0,27.4l82.2,82.2
		c7.6,7.6,19.8,7.6,27.4,0C2366.1,1293,2366.1,1280.7,2358.6,1273.1z"/>
	<path class="st0" d="M1837.8,944.2l54.8,54.8c7.6,7.6,19.8,7.6,27.4,0s7.6-19.8,0-27.4l-54.8-54.8c-7.6-7.6-19.8-7.6-27.4,0
		C1830.2,924.4,1830.2,936.7,1837.8,944.2z"/>
	<path class="st0" d="M2111.9,1163.5l-137-137c-7.6-7.6-19.8-7.6-27.4,0s-7.6,19.8,0,27.4l137,137c7.6,7.6,19.8,7.6,27.4,0
		C2119.5,1183.3,2119.5,1171,2111.9,1163.5z"/>
	<path class="st0" d="M2290,1341.6l-123.3-123.3c-7.6-7.6-19.8-7.6-27.4,0s-7.6,19.8,0,27.4l123.3,123.3c7.6,7.6,19.8,7.6,27.4,0
		C2297.6,1361.5,2297.6,1349.2,2290,1341.6z"/>
</g>
</svg>
