<?xml version="1.0" encoding="utf-8"?>
<!-- Generator: Adobe Illustrator 23.0.3, SVG Export Plug-In . SVG Version: 6.00 Build 0)  -->
<svg version="1.1" id="Layer_1" xmlns="http://www.w3.org/2000/svg" xmlns:xlink="http://www.w3.org/1999/xlink" x="0px" y="0px"
	 viewBox="0 0 4191.3 2482.6" style="enable-background:new 0 0 4191.3 2482.6;" xml:space="preserve">
<style type="text/css">
	.st0{fill:#FFFFFF;}
</style>
<g>
	<path class="st0" d="M2581.4,1227v-37.3V929.2l0,0v-21.1c0-9.7-3.8-18.8-10.7-25.7L2173,484.7c-16.3-16.3-46.3-21.2-73.9,6.3
		l-494.4,494.4L1378.2,1212l-6.3,6.3c-11.5,11.5-11.1,34.2-1,51.3c0.5,0.9,0.9,1.8,1.5,2.7c1.7,2.6,3.7,5,5.9,7.2l549.2,549.2
		c2.2,2.2,4.6,4.1,7.2,5.9c0.8,0.6,1.8,1,2.7,1.5c17.2,10.1,39.9,10.5,51.3-1l6.3-6.3l226.6-226.6l342.9-342.9
		C2574.9,1248.6,2581.4,1239.6,2581.4,1227z M2542.7,952v231.2l-115.6-115.6L2542.7,952z M1405.6,1252.1c-1-1-1.5-2.2-2-3.4
		c-1.1-3.1-0.5-6.8,2-9.3l199.2-199.2l561.9,561.9l-199.2,199.2c-2.5,2.5-6.2,3.2-9.3,2c-1.2-0.5-2.4-1.1-3.4-2L1405.6,1252.1z
		 M1632.3,1012.7l494.4-494.4c3-3,13.1-12.2,19-6.3l391.9,391.9c-2.2,1.3-4.3,2.7-6.2,4.6l-159.1,159.1l159.1,159.1
		c1.8,1.9,4,3.3,6.2,4.6c-0.2,0.2-0.3,0.3-0.5,0.5l-342.9,342.9L1632.3,1012.7z"/>
	<polygon class="st0" points="1641.2,1187.4 1682.4,1228.6 1559.7,1351.3 1582.4,1374 1705.1,1251.2 1746.3,1292.5 1761.7,1277.1 
		1656.5,1172 	"/>
	<polygon class="st0" points="1863.4,1378.8 1780.8,1408.6 1778.9,1406.8 1810.7,1326.2 1785.1,1300.5 1751.4,1408.8 1649.2,1440.9 
		1675.3,1466.9 1751,1438.4 1752.9,1440.3 1722.7,1514.3 1748.7,1540.3 1780.8,1438.2 1889.1,1404.5 	"/>
	<polygon class="st0" points="1896.9,1443.1 1938.2,1484.3 1815.4,1607 1838.1,1629.7 1960.8,1507 2002,1548.2 2017.4,1532.9 
		1912.3,1427.7 	"/>
	<path class="st0" d="M2043.4,738.7l82.2,82.2c7.6,7.6,19.8,7.6,27.4,0s7.6-19.8,0-27.4l-82.2-82.2c-7.6-7.6-19.8-7.6-27.4,0
		C2035.8,718.8,2035.8,731.1,2043.4,738.7z"/>
	<path class="st0" d="M1974.9,807.2l123.3,123.3c7.6,7.6,19.8,7.6,27.4,0c7.6-7.6,7.6-19.8,0-27.4l-123.3-123.3
		c-7.6-7.6-19.8-7.6-27.4,0C1967.3,787.3,1967.3,799.6,1974.9,807.2z"/>
	<path class="st0" d="M2153,985.3c3.6,3.6,8.6,5.6,13.7,5.8c5.1-0.1,10.1-2.2,13.7-5.8c3.6-3.6,5.6-8.6,5.8-13.7
		c0-10.1-9.3-19.5-19.3-19.3c-5.2,0-10.1,1.9-13.8,5.6c-3.7,3.7-5.6,8.6-5.8,13.7C2147.4,976.7,2149.4,981.8,2153,985.3z"/>
	<path class="st0" d="M2207.8,1040.1l109.6,109.6c7.6,7.6,19.8,7.6,27.4,0c7.6-7.6,7.6-19.8,0-27.4l-109.6-109.6
		c-7.6-7.6-19.8-7.6-27.4,0S2200.2,1032.6,2207.8,1040.1z"/>
	<path class="st0" d="M1783,979.6c-5.1,0.1-10.1,2.2-13.7,5.8s-5.6,8.6-5.8,13.7c0.1,5.1,2.2,10.1,5.8,13.7
		c3.6,3.6,8.6,5.6,13.7,5.8c5.1-0.1,10.1-2.2,13.7-5.8s5.6-8.6,5.6-13.6C1802.5,988.9,1793.1,979.6,1783,979.6z"/>
	<path class="st0" d="M1961.1,1149.8l-109.6-109.6c-7.6-7.6-19.8-7.6-27.4,0s-7.6,19.8,0,27.4l109.6,109.6c7.6,7.6,19.8,7.6,27.4,0
		C1968.7,1169.6,1968.7,1157.4,1961.1,1149.8z"/>
	<path class="st0" d="M2427.1,1204.6l-27.4-27.4c-7.6-7.6-19.8-7.6-27.4,0c-7.6,7.6-7.6,19.8,0,27.4l27.4,27.4
		c7.6,7.6,19.8,7.6,27.4,0S2434.7,1212.2,2427.1,1204.6z"/>
	<path class="st0" d="M1906.3,875.7l301.5,301.5c7.6,7.6,19.8,7.6,27.4,0c7.6-7.6,7.6-19.8,0-27.4l-301.5-301.5
		c-7.6-7.6-19.8-7.6-27.4,0C1898.8,855.9,1898.8,868.1,1906.3,875.7z"/>
	<path class="st0" d="M2358.6,1273.1l-82.2-82.2c-7.6-7.6-19.8-7.6-27.4,0c-7.6,7.6-7.6,19.8,0,27.4l82.2,82.2
		c7.6,7.6,19.8,7.6,27.4,0C2366.1,1293,2366.1,1280.7,2358.6,1273.1z"/>
	<path class="st0" d="M1837.8,944.2l54.8,54.8c7.6,7.6,19.8,7.6,27.4,0s7.6-19.8,0-27.4l-54.8-54.8c-7.6-7.6-19.8-7.6-27.4,0
		C1830.2,924.4,1830.2,936.6,1837.8,944.2z"/>
	<path class="st0" d="M2111.9,1163.5l-137-137c-7.6-7.6-19.8-7.6-27.4,0s-7.6,19.8,0,27.4l137,137c7.6,7.6,19.8,7.6,27.4,0
		C2119.5,1183.3,2119.5,1171.1,2111.9,1163.5z"/>
	<path class="st0" d="M2290,1341.6l-123.3-123.3c-7.6-7.6-19.8-7.6-27.4,0s-7.6,19.8,0,27.4l123.3,123.3c7.6,7.6,19.8,7.6,27.4,0
		C2297.6,1361.5,2297.6,1349.2,2290,1341.6z"/>
</g>
</svg>
