<?xml version="1.0" encoding="utf-8"?>
<!-- Generator: Adobe Illustrator 23.0.3, SVG Export Plug-In . SVG Version: 6.00 Build 0)  -->
<svg version="1.1" id="Layer_1" xmlns="http://www.w3.org/2000/svg" xmlns:xlink="http://www.w3.org/1999/xlink" x="0px" y="0px"
	 viewBox="0 0 4191.3 2482.6" style="enable-background:new 0 0 4191.3 2482.6;" xml:space="preserve">
<style type="text/css">
	.st0{fill:#FFFFFF;}
</style>
<g>
	<path class="st0" d="M2581.4,1227v-21.1V929.2v-21.1c0-9.6-3.9-19-10.7-25.7L2173,484.7c-16.3-16.3-46.3-21.2-73.9,6.3
		l-494.4,494.4L1378.2,1212l-6.3,6.3c-11.5,11.5-11.1,34.2-1,51.4c0.5,0.9,0.9,1.8,1.5,2.6c1.7,2.6,3.7,5,5.9,7.2l549.2,549.2
		c2.2,2.2,4.6,4.1,7.2,5.9c0.8,0.6,1.8,1,2.6,1.5c17.2,10.1,39.9,10.5,51.4-1l6.3-6.3l226.6-226.6l342.9-342.9
		C2574.9,1248.6,2581.4,1239.6,2581.4,1227z M2542.7,1183.1l-115.6-115.6L2542.7,952V1183.1z M1405.6,1252.1c-1-1-1.5-2.2-2-3.4
		c-1.1-3.2-0.5-6.8,2-9.3l199.2-199.2l561.9,561.9l-199.2,199.2c-2.5,2.5-6.1,3.2-9.3,2c-1.2-0.5-2.4-1.1-3.4-2L1405.6,1252.1z
		 M1632.3,1012.7l494.4-494.4c3-3,13.1-12.2,19-6.3l391.9,391.9c-2.2,1.3-4.3,2.7-6.2,4.6l-159.1,159.1l159.1,159.1
		c1.9,1.8,4,3.3,6.1,4.5c-0.2,0.2-0.3,0.3-0.5,0.5l-342.9,342.9L1632.3,1012.7z"/>
	<polygon class="st0" points="1752.9,1268.3 1670.3,1298.1 1668.4,1296.2 1700.2,1215.7 1674.6,1190 1640.8,1298.3 1538.7,1330.3 
		1564.8,1356.4 1640.5,1327.9 1642.4,1329.8 1612.2,1403.8 1638.2,1429.8 1670.3,1327.7 1778.6,1294 	"/>
	<polygon class="st0" points="1832.5,1348 1809.6,1325.1 1671.6,1463.2 1757.9,1549.6 1775,1532.5 1711.5,1469 	"/>
	<path class="st0" d="M1911.5,1567.8c-1.2-7.4-3.2-14.7-6-21.9c-2.8-7.2-5.2-14-7.1-20.6s-2.8-12.8-2.6-18.7
		c0.2-5.9,2.8-11.4,7.8-16.4c2-2,4.6-3.6,7.8-4.8c3.2-1.2,6.5-1.8,10-1.8s6.9,0.5,10.4,1.6s6.5,2.7,9.3,5c4.9,4.1,8.6,7.7,11.3,10.9
		c2.6,3.1,4.5,5.9,5.6,8.2c1.1,2.4,1.9,4.3,2.2,5.9c0.3,1.6,0.7,2.9,1,4c0.2,0,1.2-0.3,3-0.8c1.7-0.5,3.9-1.2,6.5-2
		c2.5-0.8,5.3-1.7,8.2-2.6c2.9-0.9,5.6-1.8,8-2.7c-1.3-6-4.3-12.5-9.1-19.4c-4.8-6.9-10.1-13.3-15.8-19
		c-5.6-5.6-11.8-10.1-18.6-13.4c-6.8-3.3-13.8-5.2-20.9-5.7s-14.2,0.5-21.2,3s-13.6,6.8-19.7,12.9c-6.7,6.7-10.9,13.8-12.6,21.2
		c-1.6,7.4-1.9,14.9-0.8,22.6s2.9,15.2,5.4,22.7c2.5,7.4,4.8,14.5,6.7,21.3c1.9,6.8,2.7,13,2.6,18.9s-2.3,10.9-6.6,15.2
		c-7,7-14.3,10.3-21.9,9.7c-7.6-0.5-15.3-4.6-22.9-12.2c-2.5-2.5-4.9-5.4-7.3-8.8s-4.6-6.9-6.6-10.6c-2.1-3.7-4-7.3-5.7-10.9
		c-1.8-3.6-3-6.8-3.7-9.6l-20,12.2c0.2,4,1.2,8.1,2.8,12.4c1.6,4.2,3.7,8.4,6.2,12.4s5.2,7.8,8.1,11.2c2.9,3.5,5.8,6.7,8.8,9.7
		c7,7,14.3,12.2,21.9,15.6s15.1,5.2,22.4,5.3c7.3,0.2,14.3-1,21.1-3.6c6.7-2.6,12.6-6.4,17.6-11.4c7.4-7.4,12-14.8,13.8-22.4
		C1912.4,1582.7,1912.7,1575.3,1911.5,1567.8z"/>
	<path class="st0" d="M2207.8,875.7l-164.4-164.4l-54.8,54.8l-27.4,27.4l-27.4,27.4l-27.4,27.4l-27.4,27.4l-27.4,27.4l-27.4,27.4
		l-27.4,27.4l-54.8,54.8l137,137l27.4,27.4l287.8,287.8l54.8-54.8l27.4-27.4l27.4-27.4l27.4-27.4l27.4-27.4l27.4-27.4l54.8-54.8
		L2153,930.5L2207.8,875.7z M1988.6,820.9l109.6,109.6l-27.4,27.4l-109.6-109.6L1988.6,820.9z M1933.7,875.7l109.6,109.6l-27.4,27.4
		l-109.6-109.6L1933.7,875.7z M1878.9,930.5l109.6,109.6l-27.4,27.4l-109.6-109.6L1878.9,930.5z M1906.3,1122.4l-109.6-109.6
		l27.4-27.4l109.6,109.6L1906.3,1122.4z M2194.1,1410.2l-260.4-260.4l27.4-27.4l260.4,260.4L2194.1,1410.2z M2248.9,1355.3
		L1988.6,1095l27.4-27.4l260.4,260.4L2248.9,1355.3z M2303.7,1300.5l-260.4-260.4l27.4-27.4l260.4,260.4L2303.7,1300.5z
		 M2386,1218.3l-27.4,27.4l-260.4-260.4l27.4-27.4L2386,1218.3z M2016,793.5l27.4-27.4L2153,875.7l-27.4,27.4L2016,793.5z"/>
</g>
</svg>
