<?xml version="1.0" encoding="utf-8"?>
<!-- Generator: Adobe Illustrator 23.0.3, SVG Export Plug-In . SVG Version: 6.00 Build 0)  -->
<svg version="1.1" id="Layer_1" xmlns="http://www.w3.org/2000/svg" xmlns:xlink="http://www.w3.org/1999/xlink" x="0px" y="0px"
	 viewBox="0 0 4191.3 2482.6" style="enable-background:new 0 0 4191.3 2482.6;" xml:space="preserve">
<style type="text/css">
	.st0{fill:#FFFFFF;}
</style>
<g>
	<path class="st0" d="M2581.4,1227v-159.5V929.2l0,0v-21.1c0-9.6-3.9-19-10.7-25.8L2173,484.6c-16.3-16.3-46.3-21.2-73.9,6.3
		l-494.4,494.4L1378.2,1212l-6.3,6.3c-11.5,11.5-11.1,34.2-1,51.4c0.5,0.9,0.9,1.8,1.5,2.6c1.7,2.6,3.7,5,5.9,7.2l549.2,549.2
		c2.2,2.2,4.6,4.1,7.2,5.9c0.8,0.6,1.8,1,2.7,1.5c17.2,10.1,39.9,10.5,51.3-1l6.3-6.3l226.6-226.6l342.9-342.9
		C2574.9,1248.6,2581.4,1239.6,2581.4,1227z M2542.7,1183.1l-115.6-115.6L2542.7,952v116.4V1183.1z M2145.6,512l391.9,391.9
		c-2.2,1.3-4.3,2.7-6.2,4.6l-159.1,159.1l159.1,159.1c1.8,1.9,4,3.3,6.2,4.6c-0.2,0.2-0.3,0.3-0.5,0.5l-173.9,173.9l-5.7-222.1
		c-0.1-5.2-2.2-10-6.2-13.7c-3.8-3.5-8.9-5.4-14.1-5.2l-281.2,12.8v-130c0-10.1-7.8-18.5-17.8-19.3l-389.9-31.3l478.4-478.4
		C2129.6,515.4,2139.8,506.1,2145.6,512z M1405.6,1252.1c-1-1-1.5-2.2-2-3.4c-1.1-3.2-0.5-6.8,2-9.3l199.2-199.2l561.9,561.9
		l-199.2,199.2c-2.5,2.5-6.2,3.2-9.3,2c-1.2-0.5-2.4-1.1-3.4-2L1405.6,1252.1z M1655.8,1036.3l361.4,29.1v282.7
		c0,10.7,8.7,19.4,19.4,19.4c10.7,0,19.4-8.7,19.4-19.4v-131.8l263.2-12l6.1,239.1l-131.2,131.2L1655.8,1036.3z"/>
	<path class="st0" d="M1610.7,1331.8c-6.4,5.9-12.8,8.1-19.3,6.7s-13-5.4-19.7-12c-2.6-2.6-5.1-5.7-7.5-9.4
		c-2.4-3.6-4.5-7.2-6.5-10.8c-1.9-3.6-3.6-7-5-10.2s-2.2-5.9-2.6-8.1l-24.7,5.6c0.6,4.4,2,9.1,4.1,14.2s4.6,10.2,7.3,15.4
		s5.7,9.8,8.8,14c3.1,4.2,6,7.7,8.8,10.5c5.5,5.5,11.4,10.3,17.6,14.4s12.7,6.8,19.4,8.2c6.7,1.3,13.4,0.9,20.2-1.1
		c6.8-2.1,13.5-6.3,20-12.8l107.5-107.5l-22.9-22.9L1610.7,1331.8z"/>
	<path class="st0" d="M1831.3,1369.2c-0.8-8.3-3.2-16.3-7-23.9c-3.9-7.6-8.7-14.4-14.6-20.2l-39.7-39.7l-138.1,138.1l22.5,22.5
		l49.8-49.8l16.7,16.7c7.2,7.2,14.9,12.8,23,16.7c8.1,3.9,16.2,6,24.4,6.4c8.1,0.4,16.2-1.1,24.3-4.4c8.1-3.3,15.6-8.5,22.6-15.5
		c6.6-6.6,11.2-14,13.7-22.1C1831.3,1385.7,1832.1,1377.5,1831.3,1369.2z M1777.1,1406.3c-5.2,2.4-9.9,3.6-14.3,3.5s-8.4-1.1-12-2.8
		c-3.6-1.8-6.8-4-9.6-6.7l-20.6-20.6l54.7-54.7l16.9,16.9c5.7,5.7,9.5,11.3,11.2,16.6c1.7,5.3,2.2,10.3,1.4,14.9
		c-0.8,4.6-2.3,8.7-4.6,12.3c-2.3,3.5-4.6,6.5-6.8,8.7C1787.7,1399.8,1782.3,1403.9,1777.1,1406.3z"/>
	<path class="st0" d="M1856.1,1536l23.4,23.4l-34.1,34.1c-2.4,0.4-5-0.1-7.9-1.5s-5.7-3-8.4-4.9c-2.8-1.9-5.4-3.9-7.9-6
		s-4.4-3.9-5.8-5.2c-4.5-4.5-7.7-9.8-9.7-16c-1.9-6.2-2.3-13.1-1.1-20.6c1.2-7.6,4.3-15.7,9.4-24.4s12.2-17.8,21.4-27.3
		c9.7-9.5,18.9-16.6,27.4-21.4c8.5-4.7,16.5-7.6,24-8.4c7.5-0.9,14.2-0.1,20.1,2.3s11.2,6,15.8,10.6c4.1,4.1,7.3,8.9,9.6,14.4
		c2.2,5.5,3.1,11.6,2.4,18.2l29.4,1.7c-0.1-10.1-2.2-19.7-6.2-28.7s-9.7-17.2-17.2-24.7c-8.1-8.1-17.2-14.2-27.3-18.1
		c-10.1-3.9-20.6-5.6-31.7-4.9s-22.5,4-34.2,9.8c-11.7,5.9-23.4,14.6-35,26.2s-20.4,23.3-26.3,35.1c-5.9,11.8-9.3,23.2-9.9,34.3
		c-0.7,11.1,0.9,21.5,4.9,31.5c3.9,9.9,10,19,18.3,27.3c4.1,4.1,8.6,8,13.4,11.5s9.9,6.6,15.4,9s11.1,4.3,17,5.5s12,1.5,18.5,0.8
		l53.4-53.4l-45.7-45.7L1856.1,1536z"/>
	<path class="st0" d="M1987.6,947.1c42.1,42.1,110.6,42.1,152.6,0s42.1-110.6,0-152.6c-42.1-42.1-110.6-42.1-152.6,0
		C1945.5,836.5,1945.5,905,1987.6,947.1z M2112.8,821.8c27,27,27,70.9,0,97.8c-27,27-70.8,27-97.8,0s-27-70.9,0-97.8
		S2085.9,794.9,2112.8,821.8z"/>
</g>
</svg>
