<?xml version="1.0" encoding="utf-8"?>
<!-- Generator: Adobe Illustrator 23.0.3, SVG Export Plug-In . SVG Version: 6.00 Build 0)  -->
<svg version="1.1" id="Layer_1" xmlns="http://www.w3.org/2000/svg" xmlns:xlink="http://www.w3.org/1999/xlink" x="0px" y="0px"
	 viewBox="0 0 4191.3 2482.6" style="enable-background:new 0 0 4191.3 2482.6;" xml:space="preserve">
<style type="text/css">
	.st0{fill:#FFFFFF;}
</style>
<g>
	<path class="st0" d="M2581.4,1227v-37.3V929.2l0,0v-21.1c0-9.7-3.8-18.8-10.7-25.7L2173,484.7c-16.3-16.3-46.3-21.2-73.9,6.3
		l-494.4,494.4L1378.2,1212l-6.3,6.3c-11.5,11.5-11.1,34.2-1,51.3c0.5,0.9,0.9,1.8,1.5,2.7c1.7,2.6,3.7,5,5.9,7.2l549.2,549.2
		c2.2,2.2,4.6,4.1,7.2,5.9c0.8,0.6,1.8,1,2.7,1.5c17.2,10.1,39.9,10.5,51.3-1l6.3-6.3l226.6-226.6l342.9-342.9
		C2574.9,1248.6,2581.4,1239.6,2581.4,1227z M2542.7,952v231.2l-115.6-115.6L2542.7,952z M1405.6,1252.1c-1-1-1.5-2.2-2-3.4
		c-1.1-3.1-0.5-6.8,2-9.3l199.2-199.2l561.9,561.9l-199.2,199.2c-2.5,2.5-6.2,3.2-9.3,2c-1.2-0.5-2.4-1.1-3.4-2L1405.6,1252.1z
		 M1632.3,1012.7l494.4-494.4c3-3,13.1-12.2,19-6.3l391.9,391.9c-2.2,1.3-4.3,2.7-6.2,4.6l-159.1,159.1l159.1,159.1
		c1.8,1.9,4,3.3,6.2,4.6c-0.2,0.2-0.3,0.3-0.5,0.5l-342.9,342.9L1632.3,1012.7z"/>
	<polygon class="st0" points="1618.2,1254.7 1558.4,1194.9 1618.9,1134.4 1596.1,1111.5 1458,1249.6 1480.9,1272.5 1543.1,1210.3 
		1602.8,1270 1540.6,1332.2 1563.1,1354.7 1701.2,1216.6 1678.7,1194.2 	"/>
	<polygon class="st0" points="1713,1259.2 1754.2,1300.4 1631.5,1423.1 1654.2,1445.8 1776.9,1323.1 1818.1,1364.3 1833.5,1348.9 
		1728.4,1243.8 	"/>
	<polygon class="st0" points="1829.7,1534 1883.1,1398.6 1860.3,1375.7 1722.2,1513.8 1745,1536.6 1840,1441.6 1794.3,1549.6 
		1814.2,1569.4 1921.9,1523.5 1826.9,1618.5 1849.8,1641.4 1987.9,1503.3 1965,1480.4 	"/>
	<polygon class="st0" points="2045.4,1560.8 2022.5,1538 1884.4,1676 1970.8,1762.4 1987.9,1745.4 1924.3,1681.9 	"/>
	<path class="st0" d="M2145,930.5c0-10.7-8.7-19.4-19.4-19.4h-164.4c-10.7,0-19.4,8.7-19.4,19.4V1095c0,5.3,2.2,10.2,5.7,13.7
		s8.4,5.7,13.7,5.7c10.7,0,19.4-8.7,19.4-19.4V949.9h145.1C2136.3,949.9,2145,941.2,2145,930.5z"/>
	<path class="st0" d="M2309.4,1095c0-10.7-8.7-19.4-19.4-19.4s-19.4,8.7-19.4,19.4v145h-145.1c-10.7,0-19.4,8.7-19.4,19.4
		c0,5.3,2.2,10.2,5.7,13.7s8.4,5.7,13.7,5.7H2290c10.7,0,19.4-8.7,19.4-19.4V1095z"/>
</g>
</svg>
